<svg xmlns="http://www.w3.org/2000/svg" viewBox="0 0 144 144"><defs><style>.cls-1{fill:#0e0e0e;}.cls-2{fill:#fff;}.cls-3{fill:none;}</style></defs><title>144_1iconmono</title><g id="Layer_2" data-name="Layer 2"><g id="Layer_10" data-name="Layer 10"><path class="cls-1" d="M72,0a72,72,0,1,0,72,72A72,72,0,0,0,72,0Zm0,140.25A68.25,68.25,0,1,1,140.25,72,68.33,68.33,0,0,1,72,140.25Z"/><path class="cls-2" d="M72,3.75A68.25,68.25,0,1,0,140.25,72,68.33,68.33,0,0,0,72,3.75Z"/><path class="cls-3" d="M82.86,50a6.39,6.39,0,0,0-2.37-1.27,13.49,13.49,0,0,0-4-.51H74V61.89h2.81a10.67,10.67,0,0,0,3.56-.54A6.11,6.11,0,0,0,82.69,60a6,6,0,0,0,1.4-2.18,8.78,8.78,0,0,0,.52-3.12,7.66,7.66,0,0,0-.47-2.77A4.74,4.74,0,0,0,82.86,50Z"/><path class="cls-3" d="M36.85,57v.35H55V42H49.83C42.67,42,36.85,48.73,36.85,57Z"/><path class="cls-1" d="M32.6,99.92A11.06,11.06,0,1,1,43.66,88.86,11.07,11.07,0,0,1,32.6,99.92Z"/><path class="cls-1" d="M110.87,99.92a11.06,11.06,0,1,1,11.06-11.06A11.07,11.07,0,0,1,110.87,99.92Z"/><path class="cls-3" d="M81.26,63.76a8.68,8.68,0,0,0,3.23-2,8.54,8.54,0,0,0,2-3.09,11.26,11.26,0,0,0,.68-4,10.14,10.14,0,0,0-.65-3.7,7.3,7.3,0,0,0-2-2.84,8.85,8.85,0,0,0-3.31-1.8,15.91,15.91,0,0,0-4.73-.63h-5V64.45h5.36A13.12,13.12,0,0,0,81.26,63.76Z"/><path class="cls-3" d="M49.83,42c-7.15,0-13,6.75-13,15.05v.35H55V42Z"/><path class="cls-1" d="M59.22,61.63V37.72H49.83C40.31,37.72,32.6,46.37,32.6,57v3.64C21.14,63.8,12.8,72.13,12.22,82.05h0a3.4,3.4,0,0,0,0,6.81H19a13.6,13.6,0,0,1,26-5.71H59.22ZM36.85,57.38V57c0-8.3,5.82-15.05,13-15.05H55v15.4Z"/><path class="cls-1" d="M131.82,82.05h-.56a23.83,23.83,0,0,0-23.81-22.71H99.19a21.08,21.08,0,0,1-.89,3,18.53,18.53,0,0,1-4.58,6.77,20.75,20.75,0,0,1-7.44,4.38A30.11,30.11,0,0,1,76.36,75H74v8.17h24.5a13.6,13.6,0,0,1,26,5.71h7.34a3.4,3.4,0,0,0,0-6.81Z"/><path class="cls-1" d="M74,85.46H71.47v-13h4.89a27.45,27.45,0,0,0,9.08-1.37A18.13,18.13,0,0,0,92,67.22a15.92,15.92,0,0,0,4-5.85A20,20,0,0,0,97.26,54a16.92,16.92,0,0,0-1.35-6.94,13.42,13.42,0,0,0-4-5.11,18,18,0,0,0-6.42-3.15,32.45,32.45,0,0,0-8.78-1.08h-15V85.46h-16a13.59,13.59,0,0,1,.45,3.4h51a13.59,13.59,0,0,1,.45-3.4ZM71.47,45.7h5a15.91,15.91,0,0,1,4.73.63,8.85,8.85,0,0,1,3.31,1.8,7.3,7.3,0,0,1,2,2.84,10.14,10.14,0,0,1,.65,3.7,11.26,11.26,0,0,1-.68,4,8.54,8.54,0,0,1-2,3.09,8.68,8.68,0,0,1-3.23,2,13.12,13.12,0,0,1-4.42.68H71.47Z"/></g></g></svg>