<svg xmlns="http://www.w3.org/2000/svg" viewBox="0 0 192 192"><defs><style>.cls-1{fill:#f1f1f1;}.cls-2{fill:#3498db;}.cls-3{fill:none;}</style></defs><title>192icon</title><g id="Layer_2" data-name="Layer 2"><g id="Layer_10" data-name="Layer 10"><path class="cls-1" d="M96,0a96,96,0,1,0,96,96A96,96,0,0,0,96,0Zm0,187a91,91,0,1,1,91-91A91.1,91.1,0,0,1,96,187Z"/><path class="cls-2" d="M96,5a91,91,0,1,0,91,91A91.1,91.1,0,0,0,96,5Z"/><path class="cls-3" d="M110.48,66.71A8.52,8.52,0,0,0,107.32,65a18,18,0,0,0-5.29-.68H98.7V82.52h3.74a14.23,14.23,0,0,0,4.75-.72A8.15,8.15,0,0,0,110.26,80,8,8,0,0,0,112.12,77a11.71,11.71,0,0,0,.69-4.16,10.21,10.21,0,0,0-.63-3.7A6.32,6.32,0,0,0,110.48,66.71Z"/><path class="cls-3" d="M49.14,76v.47H73.29V56H66.43C56.9,56,49.14,65,49.14,76Z"/><path class="cls-1" d="M43.46,133.23a14.75,14.75,0,1,1,14.75-14.75A14.76,14.76,0,0,1,43.46,133.23Z"/><path class="cls-1" d="M147.83,133.23a14.75,14.75,0,1,1,14.75-14.75A14.76,14.76,0,0,1,147.83,133.23Z"/><path class="cls-3" d="M108.34,85a11.57,11.57,0,0,0,4.3-2.63,11.39,11.39,0,0,0,2.66-4.12,15,15,0,0,0,.91-5.37,13.53,13.53,0,0,0-.86-4.93,9.73,9.73,0,0,0-2.61-3.78,11.8,11.8,0,0,0-4.41-2.4,21.22,21.22,0,0,0-6.31-.83H95.3v25h7.15A17.49,17.49,0,0,0,108.34,85Z"/><path class="cls-3" d="M66.43,56C56.9,56,49.14,65,49.14,76v.47H73.29V56Z"/><path class="cls-1" d="M79,82.18V50.3H66.43c-12.69,0-23,11.53-23,25.74v4.85c-15.28,4.17-26.39,15.28-27.18,28.51h0a4.54,4.54,0,1,0,0,9.08h9.08a18.14,18.14,0,0,1,34.61-7.61H79ZM49.14,76.51V76C49.14,65,56.9,56,66.43,56h6.85V76.51Z"/><path class="cls-1" d="M175.76,109.41H175a31.78,31.78,0,0,0-31.74-30.28h-11a28.1,28.1,0,0,1-1.19,4,24.7,24.7,0,0,1-6.1,9A27.67,27.67,0,0,1,115,98a40.14,40.14,0,0,1-13.23,2H98.7v10.89h32.67A18.14,18.14,0,0,1,166,118.48h9.78a4.54,4.54,0,0,0,0-9.07Z"/><path class="cls-1" d="M98.7,113.94H95.3V96.57h6.52a36.6,36.6,0,0,0,12.1-1.83,24.17,24.17,0,0,0,8.71-5.11,21.23,21.23,0,0,0,5.27-7.8A26.64,26.64,0,0,0,129.68,72a22.56,22.56,0,0,0-1.8-9.26,17.9,17.9,0,0,0-5.27-6.81,24,24,0,0,0-8.56-4.2,43.27,43.27,0,0,0-11.71-1.43h-20v63.65H61a18.12,18.12,0,0,1,.59,4.54h68.06a18.12,18.12,0,0,1,.59-4.54Zm-3.4-53H102a21.22,21.22,0,0,1,6.31.83,11.8,11.8,0,0,1,4.41,2.4A9.73,9.73,0,0,1,115.36,68a13.53,13.53,0,0,1,.86,4.93,15,15,0,0,1-.91,5.37,11.39,11.39,0,0,1-2.66,4.12,11.57,11.57,0,0,1-4.3,2.63,17.49,17.49,0,0,1-5.89.91H95.3Z"/></g></g></svg>