<svg xmlns="http://www.w3.org/2000/svg" viewBox="0 0 48 48"><defs><style>.cls-1{fill:#0e0e0e;}.cls-2{fill:#fff;}.cls-3{fill:none;}</style></defs><title>48_1iconmono</title><g id="Layer_2" data-name="Layer 2"><g id="Layer_10" data-name="Layer 10"><path class="cls-1" d="M24,0A24,24,0,1,0,48,24,24,24,0,0,0,24,0Zm0,46.75A22.75,22.75,0,1,1,46.75,24,22.78,22.78,0,0,1,24,46.75Z"/><path class="cls-2" d="M24,1.25A22.75,22.75,0,1,0,46.75,24,22.78,22.78,0,0,0,24,1.25Z"/><path class="cls-3" d="M27.62,7.53a2.13,2.13,0,0,0-.79-.42,4.5,4.5,0,0,0-1.32-.17h-.83v4.55h.94a3.56,3.56,0,0,0,1.19-.18,2,2,0,0,0,.76-.46,2,2,0,0,0,.47-.73,2.93,2.93,0,0,0,.17-1A2.55,2.55,0,0,0,28,8.15,1.58,1.58,0,0,0,27.62,7.53Z"/><path class="cls-3" d="M12.29,9.86V10h6V4.84H16.61C14.23,4.84,12.29,7.09,12.29,9.86Z"/><circle class="cls-1" cx="10.87" cy="29.62" r="3.69"/><circle class="cls-1" cx="36.96" cy="29.62" r="3.69"/><path class="cls-3" d="M27.09,21.25a2.89,2.89,0,0,0,1.08-.66,2.85,2.85,0,0,0,.67-1,3.75,3.75,0,0,0,.23-1.34A3.38,3.38,0,0,0,28.84,17a2.43,2.43,0,0,0-.65-.95,3,3,0,0,0-1.1-.6,5.3,5.3,0,0,0-1.58-.21H23.82v6.25h1.79A4.37,4.37,0,0,0,27.09,21.25Z"/><path class="cls-3" d="M16.61,4.84c-2.38,0-4.32,2.25-4.32,5V10h6V4.84Z"/><path class="cls-1" d="M19.74,20.54v-8H16.61c-3.17,0-5.74,2.88-5.74,6.44v1.21C7,21.27,4.27,24,4.07,27.35h0a1.13,1.13,0,0,0,0,2.27H6.33A4.53,4.53,0,0,1,15,27.72h4.76Zm-7.46-1.42V19c0-2.77,1.94-5,4.32-5h1.71v5.13Z"/><path class="cls-1" d="M43.94,27.35h-.19a7.94,7.94,0,0,0-7.94-7.57H33.06a7,7,0,0,1-.3,1A6.18,6.18,0,0,1,31.24,23a6.92,6.92,0,0,1-2.48,1.46,10,10,0,0,1-3.31.5h-.78v2.72h8.17a4.53,4.53,0,0,1,8.65,1.9h2.45a1.13,1.13,0,0,0,0-2.27Z"/><path class="cls-1" d="M24.68,28.49h-.85V24.14h1.63a9.15,9.15,0,0,0,3-.46,6,6,0,0,0,2.18-1.28A5.31,5.31,0,0,0,32,20.46,6.66,6.66,0,0,0,32.42,18,5.64,5.64,0,0,0,32,15.68,4.47,4.47,0,0,0,30.65,14a6,6,0,0,0-2.14-1,10.82,10.82,0,0,0-2.93-.36h-5V28.49H15.25a4.53,4.53,0,0,1,.15,1.13h17a4.53,4.53,0,0,1,.15-1.13Zm-.85-13.25h1.68a5.3,5.3,0,0,1,1.58.21,3,3,0,0,1,1.1.6,2.43,2.43,0,0,1,.65.95,3.38,3.38,0,0,1,.22,1.23,3.75,3.75,0,0,1-.23,1.34,2.85,2.85,0,0,1-.67,1,2.89,2.89,0,0,1-1.08.66,4.37,4.37,0,0,1-1.47.23H23.82Z"/></g></g></svg>