<svg xmlns="http://www.w3.org/2000/svg" viewBox="0 0 96 96"><defs><style>.cls-1{fill:#f1f1f1;}.cls-2{fill:#3498db;}.cls-3{fill:none;}</style></defs><title>96icon</title><g id="Layer_2" data-name="Layer 2"><g id="Layer_10" data-name="Layer 10"><path class="cls-1" d="M48,0A48,48,0,1,0,96,48,48,48,0,0,0,48,0Zm0,93.5A45.5,45.5,0,1,1,93.5,48,45.55,45.55,0,0,1,48,93.5Z"/><path class="cls-2" d="M48,2.5A45.5,45.5,0,1,0,93.5,48,45.55,45.55,0,0,0,48,2.5Z"/><path class="cls-3" d="M55.24,33.35a4.26,4.26,0,0,0-1.58-.84A9,9,0,0,0,51,32.17H49.35v9.09h1.87a7.11,7.11,0,0,0,2.38-.36A4.07,4.07,0,0,0,55.13,40a4,4,0,0,0,.93-1.45,5.86,5.86,0,0,0,.35-2.08,5.1,5.1,0,0,0-.32-1.85A3.16,3.16,0,0,0,55.24,33.35Z"/><path class="cls-3" d="M24.57,38v.23H36.64V28H33.22C28.45,28,24.57,32.49,24.57,38Z"/><circle class="cls-1" cx="21.73" cy="59.24" r="7.37"/><circle class="cls-1" cx="73.91" cy="59.24" r="7.37"/><path class="cls-3" d="M54.17,42.51a5.79,5.79,0,0,0,2.15-1.32,5.69,5.69,0,0,0,1.33-2.06,7.51,7.51,0,0,0,.46-2.69A6.76,6.76,0,0,0,57.68,34a4.86,4.86,0,0,0-1.3-1.89,5.9,5.9,0,0,0-2.2-1.2A10.61,10.61,0,0,0,51,30.47H47.65V43h3.57A8.74,8.74,0,0,0,54.17,42.51Z"/><path class="cls-3" d="M33.22,28c-4.77,0-8.65,4.5-8.65,10v.23H36.64V28Z"/><path class="cls-1" d="M39.48,41.09V25.15H33.22c-6.34,0-11.48,5.76-11.48,12.87v2.43C14.09,42.53,8.54,48.09,8.14,54.7h0a2.27,2.27,0,1,0,0,4.54h4.54A9.07,9.07,0,0,1,30,55.43h9.52ZM24.57,38.25V38c0-5.53,3.88-10,8.65-10h3.43V38.25Z"/><path class="cls-1" d="M87.88,54.7h-.37A15.89,15.89,0,0,0,71.64,39.56H66.13a14.05,14.05,0,0,1-.59,2,12.35,12.35,0,0,1-3.05,4.52,13.83,13.83,0,0,1-5,2.92,20.07,20.07,0,0,1-6.61,1H49.35v5.45H65.68A9.07,9.07,0,0,1,83,59.24h4.89a2.27,2.27,0,0,0,0-4.54Z"/><path class="cls-1" d="M49.35,57h-1.7V48.28h3.26A18.3,18.3,0,0,0,57,47.37a12.09,12.09,0,0,0,4.36-2.56A10.61,10.61,0,0,0,64,40.92,13.32,13.32,0,0,0,64.84,36a11.28,11.28,0,0,0-.9-4.63A9,9,0,0,0,61.3,28,12,12,0,0,0,57,25.87a21.63,21.63,0,0,0-5.86-.72h-10V57H30.51a9.06,9.06,0,0,1,.3,2.27h34a9.06,9.06,0,0,1,.3-2.27Zm-1.7-26.5H51a10.61,10.61,0,0,1,3.16.42,5.9,5.9,0,0,1,2.2,1.2A4.86,4.86,0,0,1,57.68,34a6.76,6.76,0,0,1,.43,2.46,7.51,7.51,0,0,1-.46,2.69,5.69,5.69,0,0,1-1.33,2.06,5.79,5.79,0,0,1-2.15,1.32,8.74,8.74,0,0,1-2.95.46H47.65Z"/></g></g></svg>